<svg width="595" height="523" viewBox="0 0 595 523" fill="none" xmlns="http://www.w3.org/2000/svg">
<line x1="0.5" y1="2.18557e-08" x2="0.499977" y2="523" stroke="#0101C5"/>
<line x1="9.5" y1="2.18557e-08" x2="9.49998" y2="523" stroke="#0101C5"/>
<line x1="18.5" y1="2.18557e-08" x2="18.5" y2="523" stroke="#0101C5"/>
<line x1="27.5" y1="2.18557e-08" x2="27.5" y2="523" stroke="#0101C5"/>
<line x1="36.5" y1="2.18557e-08" x2="36.5" y2="523" stroke="#0101C5"/>
<line x1="45.5" y1="2.18557e-08" x2="45.5" y2="523" stroke="#0101C5"/>
<line x1="54.5" y1="2.18557e-08" x2="54.5" y2="523" stroke="#0101C5"/>
<line x1="63.5" y1="2.18557e-08" x2="63.5" y2="523" stroke="#0101C5"/>
<line x1="72.5" y1="2.18557e-08" x2="72.5" y2="523" stroke="#0101C5"/>
<line x1="81.5" y1="2.18557e-08" x2="81.5" y2="523" stroke="#0101C5"/>
<line x1="90.5" y1="2.18557e-08" x2="90.5" y2="523" stroke="#0101C5"/>
<line x1="99.5" y1="2.18557e-08" x2="99.5" y2="523" stroke="#0101C5"/>
<line x1="108.5" y1="2.18557e-08" x2="108.5" y2="523" stroke="#0101C5"/>
<line x1="117.5" y1="2.18557e-08" x2="117.5" y2="523" stroke="#0101C5"/>
<line x1="126.5" y1="2.18557e-08" x2="126.5" y2="523" stroke="#0101C5"/>
<line x1="135.5" y1="2.18557e-08" x2="135.5" y2="523" stroke="#0101C5"/>
<line x1="144.5" y1="2.18557e-08" x2="144.5" y2="523" stroke="#0101C5"/>
<line x1="153.5" y1="2.18557e-08" x2="153.5" y2="523" stroke="#0101C5"/>
<line x1="162.5" y1="2.18557e-08" x2="162.5" y2="523" stroke="#0101C5"/>
<line x1="171.5" y1="2.18557e-08" x2="171.5" y2="523" stroke="#0101C5"/>
<line x1="180.5" y1="2.18557e-08" x2="180.5" y2="523" stroke="#0101C5"/>
<line x1="189.5" y1="2.18557e-08" x2="189.5" y2="523" stroke="#0101C5"/>
<line x1="198.5" y1="2.18557e-08" x2="198.5" y2="523" stroke="#0101C5"/>
<line x1="207.5" y1="2.18557e-08" x2="207.5" y2="523" stroke="#0101C5"/>
<line x1="216.5" y1="2.18557e-08" x2="216.5" y2="523" stroke="#0101C5"/>
<line x1="225.5" y1="2.18557e-08" x2="225.5" y2="523" stroke="#0101C5"/>
<line x1="234.5" y1="2.18557e-08" x2="234.5" y2="523" stroke="#0101C5"/>
<line x1="243.5" y1="2.18557e-08" x2="243.5" y2="523" stroke="#0101C5"/>
<line x1="252.5" y1="2.18557e-08" x2="252.5" y2="523" stroke="#0101C5"/>
<line x1="261.5" y1="2.18557e-08" x2="261.5" y2="523" stroke="#0101C5"/>
<line x1="270.5" y1="2.18557e-08" x2="270.5" y2="523" stroke="#0101C5"/>
<line x1="279.5" y1="2.18557e-08" x2="279.5" y2="523" stroke="#0101C5"/>
<line x1="288.5" y1="2.18557e-08" x2="288.5" y2="523" stroke="#0101C5"/>
<line x1="297.5" y1="2.18557e-08" x2="297.5" y2="523" stroke="#0101C5"/>
<line x1="306.5" y1="2.18557e-08" x2="306.5" y2="523" stroke="#0101C5"/>
<line x1="315.5" y1="2.18557e-08" x2="315.5" y2="523" stroke="#0101C5"/>
<line x1="324.5" y1="2.18557e-08" x2="324.5" y2="523" stroke="#0101C5"/>
<line x1="333.5" y1="2.18557e-08" x2="333.5" y2="523" stroke="#0101C5"/>
<line x1="342.5" y1="2.18557e-08" x2="342.5" y2="523" stroke="#0101C5"/>
<line x1="351.5" y1="2.18557e-08" x2="351.5" y2="523" stroke="#0101C5"/>
<line x1="360.5" y1="2.18557e-08" x2="360.5" y2="523" stroke="#0101C5"/>
<line x1="369.5" y1="2.18557e-08" x2="369.5" y2="523" stroke="#0101C5"/>
<line x1="378.5" y1="2.18557e-08" x2="378.5" y2="523" stroke="#0101C5"/>
<line x1="387.5" y1="2.18557e-08" x2="387.5" y2="523" stroke="#0101C5"/>
<line x1="396.5" y1="2.18557e-08" x2="396.5" y2="523" stroke="#0101C5"/>
<line x1="405.5" y1="2.18557e-08" x2="405.5" y2="523" stroke="#0101C5"/>
<line x1="414.5" y1="2.18557e-08" x2="414.5" y2="523" stroke="#0101C5"/>
<line x1="423.5" y1="2.18557e-08" x2="423.5" y2="523" stroke="#0101C5"/>
<line x1="432.5" y1="2.18557e-08" x2="432.5" y2="523" stroke="#0101C5"/>
<line x1="441.5" y1="2.18557e-08" x2="441.5" y2="523" stroke="#0101C5"/>
<line x1="450.5" y1="2.18557e-08" x2="450.5" y2="523" stroke="#0101C5"/>
<line x1="459.5" y1="2.18557e-08" x2="459.5" y2="523" stroke="#0101C5"/>
<line x1="468.5" y1="2.18557e-08" x2="468.5" y2="523" stroke="#0101C5"/>
<line x1="477.5" y1="2.18557e-08" x2="477.5" y2="523" stroke="#0101C5"/>
<line x1="486.5" y1="2.18557e-08" x2="486.5" y2="523" stroke="#0101C5"/>
<line x1="495.5" y1="2.18557e-08" x2="495.5" y2="523" stroke="#0101C5"/>
<line x1="504.5" y1="2.18557e-08" x2="504.5" y2="523" stroke="#0101C5"/>
<line x1="513.5" y1="2.18557e-08" x2="513.5" y2="523" stroke="#0101C5"/>
<line x1="522.5" y1="2.18557e-08" x2="522.5" y2="523" stroke="#0101C5"/>
<line x1="531.5" y1="2.18557e-08" x2="531.5" y2="523" stroke="#0101C5"/>
<line x1="540.5" y1="2.18557e-08" x2="540.5" y2="523" stroke="#0101C5"/>
<line x1="549.5" y1="2.18557e-08" x2="549.5" y2="523" stroke="#0101C5"/>
<line x1="558.5" y1="2.18557e-08" x2="558.5" y2="523" stroke="#0101C5"/>
<line x1="567.5" y1="2.18557e-08" x2="567.5" y2="523" stroke="#0101C5"/>
<line x1="576.5" y1="2.18557e-08" x2="576.5" y2="523" stroke="#0101C5"/>
<line x1="585.5" y1="2.18557e-08" x2="585.5" y2="523" stroke="#0101C5"/>
<line x1="594.5" y1="2.18557e-08" x2="594.5" y2="523" stroke="#0101C5"/>
</svg>
