<svg width="291" height="193" viewBox="0 0 291 193" fill="none" xmlns="http://www.w3.org/2000/svg">
<path d="M159.109 24.4301C162.309 -13.1699 98.7761 3.09674 66.6094 15.9301C59.9427 18.7634 42.0094 20.7301 23.6094 5.93006C0.60936 -12.57 8.60939 24.4301 2.10939 59.9301C-4.39061 95.4301 18.6094 83.9301 46.6094 59.9301C74.6094 35.9301 87.1094 48.9301 90.6094 67.4301C94.1094 85.9301 88.1094 107.93 126.109 97.9301C164.109 87.9301 155.109 71.4301 159.109 24.4301Z" stroke="#FFFF00"/>
<path d="M164.335 28.1076C167.535 -9.49244 104.002 6.77423 71.8352 19.6076C65.1686 22.4409 47.2352 24.4076 28.8352 9.60755C5.83519 -8.89246 13.8352 28.1076 7.33522 63.6076C0.835222 99.1075 23.8352 87.6076 51.8352 63.6076C79.8352 39.6076 92.3352 52.6076 95.8352 71.1076C99.3352 89.6076 93.3352 111.608 131.335 101.608C169.335 91.6076 160.335 75.1076 164.335 28.1076Z" stroke="#FFFF00"/>
<path d="M169.561 31.7851C172.761 -5.81495 109.228 10.4517 77.0611 23.2851C70.3944 26.1184 52.461 28.0851 34.061 13.285C11.061 -5.21497 19.0611 31.7851 12.5611 67.285C6.06105 102.785 29.0611 91.285 57.0611 67.285C85.0611 43.285 97.5611 56.285 101.061 74.785C104.561 93.285 98.5611 115.285 136.561 105.285C174.561 95.285 165.561 78.785 169.561 31.7851Z" stroke="#FFFF00"/>
<path d="M174.787 35.4623C177.987 -2.1377 114.454 14.129 82.2869 26.9623C75.6202 29.7956 57.6869 31.7623 39.2869 16.9623C16.2868 -1.53772 24.2869 35.4623 17.7869 70.9623C11.2869 106.462 34.2869 94.9623 62.2869 70.9623C90.2869 46.9623 102.787 59.9623 106.287 78.4623C109.787 96.9623 103.787 118.962 141.787 108.962C179.787 98.9623 170.787 82.4623 174.787 35.4623Z" stroke="#FFFF00"/>
<path d="M180.013 39.1398C183.213 1.53979 119.679 17.8065 87.5127 30.6398C80.846 33.4731 62.9127 35.4398 44.5127 20.6398C21.5127 2.13977 29.5127 39.1398 23.0127 74.6398C16.5127 110.14 39.5127 98.6398 67.5127 74.6398C95.5127 50.6398 108.013 63.6398 111.513 82.1398C115.013 100.64 109.013 122.64 147.013 112.64C185.013 102.64 176.013 86.1398 180.013 39.1398Z" stroke="#FFFF00"/>
<path d="M185.239 42.8173C188.439 5.21728 124.905 21.4839 92.7385 34.3173C86.0719 37.1506 68.1385 39.1173 49.7385 24.3173C26.7385 5.81726 34.7385 42.8173 28.2385 78.3173C21.7385 113.817 44.7385 102.317 72.7385 78.3173C100.739 54.3173 113.239 67.3173 116.739 85.8173C120.239 104.317 114.239 126.317 152.239 116.317C190.239 106.317 181.239 89.8173 185.239 42.8173Z" stroke="#FFFF00"/>
<path d="M190.464 46.4945C193.664 8.89453 130.131 25.1612 97.9644 37.9945C91.2977 40.8279 73.3644 42.7945 54.9644 27.9945C31.9643 9.4945 39.9644 46.4945 33.4644 81.9945C26.9644 117.495 49.9644 105.995 77.9644 81.9945C105.964 57.9945 118.464 70.9945 121.964 89.4945C125.464 107.995 119.464 129.995 157.464 119.995C195.464 109.995 186.464 93.4945 190.464 46.4945Z" stroke="#FFFF00"/>
<path d="M195.69 50.172C198.89 12.572 135.357 28.8387 103.19 41.672C96.5235 44.5054 78.5902 46.472 60.1902 31.672C37.1902 13.172 45.1902 50.172 38.6902 85.672C32.1902 121.172 55.1902 109.672 83.1902 85.672C111.19 61.672 123.69 74.672 127.19 93.172C130.69 111.672 124.69 133.672 162.69 123.672C200.69 113.672 191.69 97.172 195.69 50.172Z" stroke="#FFFF00"/>
<path d="M200.916 53.8495C204.116 16.2495 140.583 32.5162 108.416 45.3495C101.749 48.1828 83.816 50.1495 65.416 35.3495C42.416 16.8495 50.416 53.8495 43.916 89.3495C37.416 124.849 60.416 113.349 88.416 89.3495C116.416 65.3495 128.916 78.3495 132.416 96.8495C135.916 115.349 129.916 137.349 167.916 127.349C205.916 117.349 196.916 100.85 200.916 53.8495Z" stroke="#FFFF00"/>
<path d="M206.142 57.5268C209.342 19.9268 145.809 36.1934 113.642 49.0268C106.975 51.8601 89.0419 53.8267 70.6418 39.0267C47.6418 20.5267 55.6419 57.5268 49.1419 93.0267C42.6419 128.527 65.6419 117.027 93.6419 93.0267C121.642 69.0267 134.142 82.0267 137.642 100.527C141.142 119.027 135.142 141.027 173.142 131.027C211.142 121.027 202.142 104.527 206.142 57.5268Z" stroke="#FFFF00"/>
<path d="M211.368 61.2042C214.568 23.6042 151.034 39.8709 118.868 52.7042C112.201 55.5376 94.2677 57.5042 75.8677 42.7042C52.8677 24.2042 60.8677 61.2042 54.3677 96.7042C47.8677 132.204 70.8677 120.704 98.8677 96.7042C126.868 72.7042 139.368 85.7042 142.868 104.204C146.368 122.704 140.368 144.704 178.368 134.704C216.368 124.704 207.368 108.204 211.368 61.2042Z" stroke="#FFFF00"/>
<path d="M216.594 64.8817C219.794 27.2817 156.26 43.5484 124.094 56.3817C117.427 59.2151 99.4935 61.1817 81.0935 46.3817C58.0935 27.8817 66.0935 64.8817 59.5935 100.382C53.0935 135.882 76.0935 124.382 104.094 100.382C132.094 76.3817 144.594 89.3817 148.094 107.882C151.594 126.382 145.594 148.382 183.594 138.382C221.594 128.382 212.594 111.882 216.594 64.8817Z" stroke="#FFFF00"/>
<path d="M221.819 68.559C225.019 30.959 161.486 47.2256 129.319 60.059C122.653 62.8923 104.719 64.859 86.3193 50.059C63.3193 31.559 71.3194 68.559 64.8194 104.059C58.3194 139.559 81.3194 128.059 109.319 104.059C137.319 80.059 149.819 93.059 153.319 111.559C156.819 130.059 150.819 152.059 188.819 142.059C226.819 132.059 217.819 115.559 221.819 68.559Z" stroke="#FFFF00"/>
<path d="M227.045 72.2365C230.245 34.6365 166.712 50.9031 134.545 63.7365C127.879 66.5698 109.945 68.5365 91.5452 53.7365C68.5452 35.2364 76.5452 72.2365 70.0452 107.736C63.5452 143.236 86.5452 131.736 114.545 107.736C142.545 83.7365 155.045 96.7365 158.545 115.236C162.045 133.736 156.045 155.736 194.045 145.736C232.045 135.736 223.045 119.236 227.045 72.2365Z" stroke="#FFFF00"/>
<path d="M232.271 75.914C235.471 38.314 171.938 54.5806 139.771 67.414C133.104 70.2473 115.171 72.214 96.771 57.4139C73.771 38.9139 81.771 75.914 75.271 111.414C68.771 146.914 91.771 135.414 119.771 111.414C147.771 87.4139 160.271 100.414 163.771 118.914C167.271 137.414 161.271 159.414 199.271 149.414C237.271 139.414 228.271 122.914 232.271 75.914Z" stroke="#FFFF00"/>
<path d="M237.497 79.5912C240.697 41.9912 177.164 58.2579 144.997 71.0912C138.33 73.9245 120.397 75.8912 101.997 61.0912C78.9968 42.5912 86.9968 79.5912 80.4968 115.091C73.9968 150.591 96.9968 139.091 124.997 115.091C152.997 91.0912 165.497 104.091 168.997 122.591C172.497 141.091 166.497 163.091 204.497 153.091C242.497 143.091 233.497 126.591 237.497 79.5912Z" stroke="#FFFF00"/>
<path d="M242.723 83.2689C245.923 45.6689 182.389 61.9356 150.223 74.7689C143.556 77.6023 125.623 79.5689 107.223 64.7689C84.2226 46.2689 92.2227 83.2689 85.7227 118.769C79.2227 154.269 102.223 142.769 130.223 118.769C158.223 94.7689 170.723 107.769 174.223 126.269C177.723 144.769 171.723 166.769 209.723 156.769C247.723 146.769 238.723 130.269 242.723 83.2689Z" stroke="#FFFF00"/>
<path d="M247.949 86.9462C251.148 49.3462 187.615 65.6129 155.449 78.4462C148.782 81.2795 130.848 83.2462 112.448 68.4462C89.4485 49.9462 97.4485 86.9462 90.9485 122.446C84.4485 157.946 107.449 146.446 135.449 122.446C163.449 98.4462 175.949 111.446 179.449 129.946C182.949 148.446 176.949 170.446 214.949 160.446C252.949 150.446 243.949 133.946 247.949 86.9462Z" stroke="#FFFF00"/>
<path d="M253.174 90.6237C256.374 53.0237 192.841 69.2903 160.674 82.1237C154.008 84.957 136.074 86.9237 117.674 72.1237C94.6743 53.6237 102.674 90.6237 96.1743 126.124C89.6743 161.624 112.674 150.124 140.674 126.124C168.674 102.124 181.174 115.124 184.674 133.624C188.174 152.124 182.174 174.124 220.174 164.124C258.174 154.124 249.174 137.624 253.174 90.6237Z" stroke="#FFFF00"/>
<path d="M258.4 94.3012C261.6 56.7012 198.067 72.9678 165.9 85.8012C159.233 88.6345 141.3 90.6012 122.9 75.8012C99.9001 57.3011 107.9 94.3012 101.4 129.801C94.9002 165.301 117.9 153.801 145.9 129.801C173.9 105.801 186.4 118.801 189.9 137.301C193.4 155.801 187.4 177.801 225.4 167.801C263.4 157.801 254.4 141.301 258.4 94.3012Z" stroke="#FFFF00"/>
<path d="M263.626 97.9784C266.826 60.3784 203.293 76.6451 171.126 89.4784C164.459 92.3117 146.526 94.2784 128.126 79.4784C105.126 60.9784 113.126 97.9784 106.626 133.478C100.126 168.978 123.126 157.478 151.126 133.478C179.126 109.478 191.626 122.478 195.126 140.978C198.626 159.478 192.626 181.478 230.626 171.478C268.626 161.478 259.626 144.978 263.626 97.9784Z" stroke="#FFFF00"/>
<path d="M268.852 101.656C272.052 64.0559 208.518 80.3226 176.352 93.1559C169.685 95.9892 151.752 97.9559 133.352 83.1559C110.352 64.6559 118.352 101.656 111.852 137.156C105.352 172.656 128.352 161.156 156.352 137.156C184.352 113.156 196.852 126.156 200.352 144.656C203.852 163.156 197.852 185.156 235.852 175.156C273.852 165.156 264.852 148.656 268.852 101.656Z" stroke="#FFFF00"/>
<path d="M274.078 105.333C277.278 67.7334 213.744 84.0001 181.578 96.8334C174.911 99.6667 156.978 101.633 138.578 86.8334C115.578 68.3334 123.578 105.333 117.078 140.833C110.578 176.333 133.578 164.833 161.578 140.833C189.578 116.833 202.078 129.833 205.578 148.333C209.078 166.833 203.078 188.833 241.078 178.833C279.078 168.833 270.078 152.333 274.078 105.333Z" stroke="#FFFF00"/>
<path d="M279.303 109.011C282.503 71.4106 218.97 87.6773 186.803 100.511C180.137 103.344 162.203 105.311 143.803 90.5106C120.803 72.0106 128.803 109.011 122.303 144.511C115.803 180.011 138.803 168.511 166.803 144.511C194.803 120.511 207.303 133.511 210.803 152.011C214.303 170.511 208.303 192.511 246.303 182.511C284.303 172.511 275.303 156.011 279.303 109.011Z" stroke="#FFFF00"/>
<path d="M284.529 112.688C287.729 75.0881 224.196 91.3548 192.029 104.188C185.363 107.021 167.429 108.988 149.029 94.1881C126.029 75.6881 134.029 112.688 127.529 148.188C121.029 183.688 144.029 172.188 172.029 148.188C200.029 124.188 212.529 137.188 216.029 155.688C219.529 174.188 213.529 196.188 251.529 186.188C289.529 176.188 280.529 159.688 284.529 112.688Z" stroke="#FFFF00"/>
<path d="M289.755 116.366C292.955 78.7656 229.422 95.0323 197.255 107.866C190.588 110.699 172.655 112.666 154.255 97.8656C131.255 79.3656 139.255 116.366 132.755 151.866C126.255 187.366 149.255 175.866 177.255 151.866C205.255 127.866 217.755 140.866 221.255 159.366C224.755 177.866 218.755 199.866 256.755 189.866C294.755 179.866 285.755 163.366 289.755 116.366Z" stroke="#FFFF00"/>
</svg>
