<svg width="191" height="193" viewBox="0 0 191 193" fill="none" xmlns="http://www.w3.org/2000/svg">
<path d="M159.109 24.4301C162.309 -13.1699 98.7761 3.09674 66.6094 15.9301C59.9427 18.7634 42.0094 20.7301 23.6094 5.93006C0.60936 -12.57 8.60939 24.4301 2.10939 59.9301C-4.39061 95.4301 18.6094 83.9301 46.6094 59.9301C74.6094 35.9301 87.1094 48.9301 90.6094 67.4301C94.1094 85.9301 88.1094 107.93 126.109 97.9301C164.109 87.9301 155.109 71.4301 159.109 24.4301Z" stroke="#FFFF00"/>
<path d="M160.335 28.1076C163.535 -9.49244 100.002 6.77423 67.8352 19.6076C61.1686 22.4409 43.2352 24.4076 24.8352 9.60755C1.83519 -8.89246 9.83522 28.1076 3.33522 63.6076C-3.16478 99.1075 19.8352 87.6076 47.8352 63.6076C75.8352 39.6076 88.3352 52.6076 91.8352 71.1076C95.3352 89.6076 89.3352 111.608 127.335 101.608C165.335 91.6076 156.335 75.1076 160.335 28.1076Z" stroke="#FFFF00"/>
<path d="M161.561 31.7851C164.761 -5.81495 101.228 10.4517 69.0611 23.2851C62.3944 26.1184 44.461 28.0851 26.061 13.285C3.06102 -5.21497 11.0611 31.7851 4.56105 67.285C-1.93895 102.785 21.0611 91.285 49.0611 67.285C77.0611 43.285 89.5611 56.285 93.0611 74.785C96.5611 93.285 90.5611 115.285 128.561 105.285C166.561 95.285 157.561 78.785 161.561 31.7851Z" stroke="#FFFF00"/>
<path d="M162.787 35.4623C165.987 -2.1377 102.454 14.129 70.2869 26.9623C63.6202 29.7956 45.6869 31.7623 27.2869 16.9623C4.28685 -1.53772 12.2869 35.4623 5.78688 70.9623C-0.713118 106.462 22.2869 94.9623 50.2869 70.9623C78.2869 46.9623 90.7869 59.9623 94.2869 78.4623C97.7869 96.9623 91.7869 118.962 129.787 108.962C167.787 98.9623 158.787 82.4623 162.787 35.4623Z" stroke="#FFFF00"/>
<path d="M164.013 39.1398C167.213 1.53979 103.679 17.8065 71.5127 30.6398C64.846 33.4731 46.9127 35.4398 28.5127 20.6398C5.51268 2.13977 13.5127 39.1398 7.01271 74.6398C0.512712 110.14 23.5127 98.6398 51.5127 74.6398C79.5127 50.6398 92.0127 63.6398 95.5127 82.1398C99.0127 100.64 93.0127 122.64 131.013 112.64C169.013 102.64 160.013 86.1398 164.013 39.1398Z" stroke="#FFFF00"/>
<path d="M165.239 42.8173C168.439 5.21728 104.905 21.4839 72.7385 34.3173C66.0719 37.1506 48.1385 39.1173 29.7385 24.3173C6.73851 5.81726 14.7385 42.8173 8.23854 78.3173C1.73854 113.817 24.7385 102.317 52.7385 78.3173C80.7385 54.3173 93.2385 67.3173 96.7385 85.8173C100.239 104.317 94.2385 126.317 132.239 116.317C170.239 106.317 161.239 89.8173 165.239 42.8173Z" stroke="#FFFF00"/>
<path d="M166.464 46.4945C169.664 8.89453 106.131 25.1612 73.9644 37.9945C67.2977 40.8279 49.3644 42.7945 30.9644 27.9945C7.96434 9.4945 15.9644 46.4945 9.46437 81.9945C2.96437 117.495 25.9644 105.995 53.9644 81.9945C81.9644 57.9945 94.4644 70.9945 97.9644 89.4945C101.464 107.995 95.4644 129.995 133.464 119.995C171.464 109.995 162.464 93.4945 166.464 46.4945Z" stroke="#FFFF00"/>
<path d="M167.69 50.172C170.89 12.572 107.357 28.8387 75.1902 41.672C68.5235 44.5054 50.5902 46.472 32.1902 31.672C9.19017 13.172 17.1902 50.172 10.6902 85.672C4.1902 121.172 27.1902 109.672 55.1902 85.672C83.1902 61.672 95.6902 74.672 99.1902 93.172C102.69 111.672 96.6902 133.672 134.69 123.672C172.69 113.672 163.69 97.172 167.69 50.172Z" stroke="#FFFF00"/>
<path d="M168.916 53.8495C172.116 16.2495 108.583 32.5162 76.416 45.3495C69.7494 48.1828 51.816 50.1495 33.416 35.3495C10.416 16.8495 18.416 53.8495 11.916 89.3495C5.41603 124.849 28.416 113.349 56.416 89.3495C84.416 65.3495 96.916 78.3495 100.416 96.8495C103.916 115.349 97.916 137.349 135.916 127.349C173.916 117.349 164.916 100.85 168.916 53.8495Z" stroke="#FFFF00"/>
<path d="M170.142 57.5268C173.342 19.9268 109.809 36.1934 77.6419 49.0268C70.9752 51.8601 53.0419 53.8267 34.6418 39.0267C11.6418 20.5267 19.6419 57.5268 13.1419 93.0267C6.64186 128.527 29.6419 117.027 57.6419 93.0267C85.6419 69.0267 98.1419 82.0267 101.642 100.527C105.142 119.027 99.1419 141.027 137.142 131.027C175.142 121.027 166.142 104.527 170.142 57.5268Z" stroke="#FFFF00"/>
<path d="M171.368 61.2042C174.568 23.6042 111.034 39.8709 78.8677 52.7042C72.201 55.5376 54.2677 57.5042 35.8677 42.7042C12.8677 24.2042 20.8677 61.2042 14.3677 96.7042C7.86769 132.204 30.8677 120.704 58.8677 96.7042C86.8677 72.7042 99.3677 85.7042 102.868 104.204C106.368 122.704 100.368 144.704 138.368 134.704C176.368 124.704 167.368 108.204 171.368 61.2042Z" stroke="#FFFF00"/>
<path d="M172.594 64.8817C175.794 27.2817 112.26 43.5484 80.0935 56.3817C73.4269 59.2151 55.4935 61.1817 37.0935 46.3817C14.0935 27.8817 22.0935 64.8817 15.5935 100.382C9.09352 135.882 32.0935 124.382 60.0935 100.382C88.0935 76.3817 100.594 89.3817 104.094 107.882C107.594 126.382 101.594 148.382 139.594 138.382C177.594 128.382 168.594 111.882 172.594 64.8817Z" stroke="#FFFF00"/>
<path d="M173.819 68.559C177.019 30.959 113.486 47.2256 81.3194 60.059C74.6527 62.8923 56.7193 64.859 38.3193 50.059C15.3193 31.559 23.3194 68.559 16.8194 104.059C10.3194 139.559 33.3194 128.059 61.3194 104.059C89.3194 80.059 101.819 93.059 105.319 111.559C108.819 130.059 102.819 152.059 140.819 142.059C178.819 132.059 169.819 115.559 173.819 68.559Z" stroke="#FFFF00"/>
<path d="M175.045 72.2365C178.245 34.6365 114.712 50.9031 82.5452 63.7365C75.8785 66.5698 57.9452 68.5365 39.5452 53.7365C16.5452 35.2364 24.5452 72.2365 18.0452 107.736C11.5452 143.236 34.5452 131.736 62.5452 107.736C90.5452 83.7365 103.045 96.7365 106.545 115.236C110.045 133.736 104.045 155.736 142.045 145.736C180.045 135.736 171.045 119.236 175.045 72.2365Z" stroke="#FFFF00"/>
<path d="M176.271 75.914C179.471 38.314 115.938 54.5806 83.771 67.414C77.1043 70.2473 59.171 72.214 40.771 57.4139C17.771 38.9139 25.771 75.914 19.271 111.414C12.771 146.914 35.771 135.414 63.771 111.414C91.771 87.4139 104.271 100.414 107.771 118.914C111.271 137.414 105.271 159.414 143.271 149.414C181.271 139.414 172.271 122.914 176.271 75.914Z" stroke="#FFFF00"/>
<path d="M177.497 79.5912C180.697 41.9912 117.164 58.2579 84.9968 71.0912C78.3302 73.9245 60.3968 75.8912 41.9968 61.0912C18.9968 42.5912 26.9968 79.5912 20.4968 115.091C13.9968 150.591 36.9968 139.091 64.9968 115.091C92.9968 91.0912 105.497 104.091 108.997 122.591C112.497 141.091 106.497 163.091 144.497 153.091C182.497 143.091 173.497 126.591 177.497 79.5912Z" stroke="#FFFF00"/>
<path d="M178.723 83.2689C181.923 45.6689 118.389 61.9356 86.2227 74.7689C79.556 77.6023 61.6227 79.5689 43.2227 64.7689C20.2226 46.2689 28.2227 83.2689 21.7227 118.769C15.2227 154.269 38.2227 142.769 66.2227 118.769C94.2227 94.7689 106.723 107.769 110.223 126.269C113.723 144.769 107.723 166.769 145.723 156.769C183.723 146.769 174.723 130.269 178.723 83.2689Z" stroke="#FFFF00"/>
<path d="M179.949 86.9462C183.148 49.3462 119.615 65.6129 87.4485 78.4462C80.7818 81.2795 62.8485 83.2462 44.4485 68.4462C21.4485 49.9462 29.4485 86.9462 22.9485 122.446C16.4485 157.946 39.4485 146.446 67.4485 122.446C95.4485 98.4462 107.949 111.446 111.449 129.946C114.949 148.446 108.949 170.446 146.949 160.446C184.949 150.446 175.949 133.946 179.949 86.9462Z" stroke="#FFFF00"/>
<path d="M181.174 90.6237C184.374 53.0237 120.841 69.2903 88.6743 82.1237C82.0077 84.957 64.0743 86.9237 45.6743 72.1237C22.6743 53.6237 30.6743 90.6237 24.1743 126.124C17.6743 161.624 40.6743 150.124 68.6743 126.124C96.6743 102.124 109.174 115.124 112.674 133.624C116.174 152.124 110.174 174.124 148.174 164.124C186.174 154.124 177.174 137.624 181.174 90.6237Z" stroke="#FFFF00"/>
<path d="M182.4 94.3012C185.6 56.7012 122.067 72.9678 89.9002 85.8012C83.2335 88.6345 65.3002 90.6012 46.9001 75.8012C23.9001 57.3011 31.9002 94.3012 25.4002 129.801C18.9002 165.301 41.9002 153.801 69.9002 129.801C97.9002 105.801 110.4 118.801 113.9 137.301C117.4 155.801 111.4 177.801 149.4 167.801C187.4 157.801 178.4 141.301 182.4 94.3012Z" stroke="#FFFF00"/>
<path d="M183.626 97.9784C186.826 60.3784 123.293 76.6451 91.126 89.4784C84.4593 92.3117 66.526 94.2784 48.126 79.4784C25.126 60.9784 33.126 97.9784 26.626 133.478C20.126 168.978 43.126 157.478 71.126 133.478C99.126 109.478 111.626 122.478 115.126 140.978C118.626 159.478 112.626 181.478 150.626 171.478C188.626 161.478 179.626 144.978 183.626 97.9784Z" stroke="#FFFF00"/>
<path d="M184.852 101.656C188.052 64.0559 124.518 80.3226 92.3518 93.1559C85.6852 95.9892 67.7518 97.9559 49.3518 83.1559C26.3518 64.6559 34.3518 101.656 27.8518 137.156C21.3518 172.656 44.3518 161.156 72.3518 137.156C100.352 113.156 112.852 126.156 116.352 144.656C119.852 163.156 113.852 185.156 151.852 175.156C189.852 165.156 180.852 148.656 184.852 101.656Z" stroke="#FFFF00"/>
<path d="M186.078 105.333C189.278 67.7334 125.744 84.0001 93.5777 96.8334C86.911 99.6667 68.9776 101.633 50.5776 86.8334C27.5776 68.3334 35.5777 105.333 29.0777 140.833C22.5777 176.333 45.5777 164.833 73.5777 140.833C101.578 116.833 114.078 129.833 117.578 148.333C121.078 166.833 115.078 188.833 153.078 178.833C191.078 168.833 182.078 152.333 186.078 105.333Z" stroke="#FFFF00"/>
<path d="M187.303 109.011C190.503 71.4106 126.97 87.6773 94.8035 100.511C88.1368 103.344 70.2035 105.311 51.8035 90.5106C28.8035 72.0106 36.8035 109.011 30.3035 144.511C23.8035 180.011 46.8035 168.511 74.8035 144.511C102.803 120.511 115.303 133.511 118.803 152.011C122.303 170.511 116.303 192.511 154.303 182.511C192.303 172.511 183.303 156.011 187.303 109.011Z" stroke="#FFFF00"/>
<path d="M188.529 112.688C191.729 75.0881 128.196 91.3548 96.0293 104.188C89.3626 107.021 71.4293 108.988 53.0293 94.1881C30.0293 75.6881 38.0293 112.688 31.5293 148.188C25.0293 183.688 48.0293 172.188 76.0293 148.188C104.029 124.188 116.529 137.188 120.029 155.688C123.529 174.188 117.529 196.188 155.529 186.188C193.529 176.188 184.529 159.688 188.529 112.688Z" stroke="#FFFF00"/>
<path d="M189.755 116.366C192.955 78.7656 129.422 95.0323 97.2551 107.866C90.5885 110.699 72.6551 112.666 54.2551 97.8656C31.2551 79.3656 39.2551 116.366 32.7551 151.866C26.2551 187.366 49.2551 175.866 77.2551 151.866C105.255 127.866 117.755 140.866 121.255 159.366C124.755 177.866 118.755 199.866 156.755 189.866C194.755 179.866 185.755 163.366 189.755 116.366Z" stroke="#FFFF00"/>
</svg>
