<svg width="165" height="20" viewBox="0 0 165 20" fill="none" xmlns="http://www.w3.org/2000/svg">
<path d="M0.837871 19.1091H9.69387C14.0499 19.1091 16.9659 17.8851 16.9659 14.4651C16.9659 10.9731 14.4459 10.1811 12.0699 10.1451V9.28113C13.5099 9.17313 15.6339 8.45313 15.6339 5.53713C15.6339 2.08113 12.7179 1.21713 8.36187 1.21713H0.837871V19.1091ZM3.86187 16.8411V10.9371H9.69387C12.4299 10.9371 13.9059 11.6211 13.9059 13.9971C13.9059 16.0851 12.5739 16.8411 9.69387 16.8411H3.86187ZM3.86187 8.70513V3.44913H8.36187C11.2419 3.44913 12.5739 4.06113 12.5739 6.00513C12.5739 8.34513 11.1339 8.70513 8.36187 8.70513H3.86187ZM27.8643 6.22113H23.9403V1.21713H20.7363V19.1091H27.8643C32.1123 19.1091 35.6403 17.7411 35.6403 12.6651C35.6403 7.58913 32.1123 6.22113 27.8643 6.22113ZM23.9403 16.4451V8.88513H27.5043C30.4563 8.88513 32.4363 9.28113 32.4363 12.6651C32.4363 16.0851 30.4563 16.4451 27.5043 16.4451H23.9403ZM39.5643 19.1091H42.7683V1.21713H39.5643V19.1091ZM46.7702 10.1451C46.7702 15.4011 50.1542 19.4691 55.9502 19.4691C59.5502 19.4691 63.9782 17.4531 64.4102 12.2691H61.2062C60.7022 15.5451 58.5422 16.7331 55.9502 16.7331C51.9182 16.7331 49.9382 13.7811 49.9382 10.1451C49.9382 6.54513 51.9182 3.59313 55.9502 3.59313C58.5422 3.59313 60.7022 4.78113 61.2062 8.05713H64.4102C63.9782 2.87313 59.5502 0.85713 55.9502 0.85713C50.1542 0.85713 46.7702 4.92513 46.7702 10.1451ZM66.8728 1.21713V3.95313H73.6408V19.1091H76.8088V3.95313H83.5768V1.21713H66.8728ZM85.8991 14.1411C85.8991 16.0131 86.6911 19.4691 91.9471 19.4691C96.3031 19.4691 98.2111 16.9131 98.8951 14.1771H99.7951L99.2911 16.0851V16.9491C99.2911 18.3171 100.083 19.1091 101.451 19.1091H104.727V16.3731H102.099V8.77713C102.099 4.06113 99.2911 0.85713 94.0711 0.85713C89.4271 0.85713 86.6911 3.52113 86.2951 7.58913H89.4631C89.7511 4.60113 91.6231 3.44913 94.1071 3.44913C97.2751 3.44913 98.7511 4.99713 98.8951 8.23713L91.8751 8.92113C87.6271 9.31713 85.8991 11.2971 85.8991 14.1411ZM89.0671 13.7451C89.0671 12.0171 90.2191 11.4051 92.4151 11.1891L98.8951 10.5051C98.8951 14.1051 96.3391 16.8411 92.4511 16.8411C90.3991 16.8411 89.0671 15.7971 89.0671 13.7451ZM108.064 19.1091H116.92C121.276 19.1091 124.192 17.8851 124.192 14.4651C124.192 10.9731 121.672 10.1811 119.296 10.1451V9.28113C120.736 9.17313 122.86 8.45313 122.86 5.53713C122.86 2.08113 119.944 1.21713 115.588 1.21713H108.064V19.1091ZM111.088 16.8411V10.9371H116.92C119.656 10.9371 121.132 11.6211 121.132 13.9971C121.132 16.0851 119.8 16.8411 116.92 16.8411H111.088ZM111.088 8.70513V3.44913H115.588C118.468 3.44913 119.8 4.06113 119.8 6.00513C119.8 8.34513 118.36 8.70513 115.588 8.70513H111.088ZM127.963 1.21713V19.1091H131.167V11.5131H133.435L139.735 19.1091H143.371L135.775 9.67713L140.095 3.95313H142.975V1.21713H140.131C138.943 1.21713 138.079 1.61313 137.395 2.54913L132.751 8.77713H131.167V1.21713H127.963ZM145.805 14.1411C145.805 16.0131 146.597 19.4691 151.853 19.4691C156.209 19.4691 158.117 16.9131 158.801 14.1771H159.701L159.197 16.0851V16.9491C159.197 18.3171 159.989 19.1091 161.357 19.1091H164.633V16.3731H162.005V8.77713C162.005 4.06113 159.197 0.85713 153.977 0.85713C149.333 0.85713 146.597 3.52113 146.201 7.58913H149.369C149.657 4.60113 151.529 3.44913 154.013 3.44913C157.181 3.44913 158.657 4.99713 158.801 8.23713L151.781 8.92113C147.533 9.31713 145.805 11.2971 145.805 14.1411ZM148.973 13.7451C148.973 12.0171 150.125 11.4051 152.321 11.1891L158.801 10.5051C158.801 14.1051 156.245 16.8411 152.357 16.8411C150.305 16.8411 148.973 15.7971 148.973 13.7451Z" fill="white"/>
</svg>
